<?xml version="1.0" encoding="iso-8859-1"?>
<!-- Generator: Adobe Illustrator 19.0.0, SVG Export Plug-In . SVG Version: 6.00 Build 0)  -->
<svg version="1.1" id="Capa_1" xmlns="http://www.w3.org/2000/svg" xmlns:xlink="http://www.w3.org/1999/xlink" x="0px" y="0px"
	 viewBox="0 0 59 59" style="enable-background:new 0 0 59 59;" xml:space="preserve">
<g>
	<path style="fill:#67B9CC;" d="M58.989,30.951c-0.013-0.275-0.13-0.543-0.36-0.729c-0.431-0.35-1.061-0.28-1.406,0.148
		c-0.876,1.084-2.021,1.681-3.223,1.681s-2.347-0.597-3.223-1.681c-1.263-1.563-2.959-2.423-4.777-2.423s-3.515,0.86-4.777,2.423
		c-0.876,1.084-2.021,1.682-3.223,1.682s-2.347-0.598-3.223-1.682c-1.263-1.563-2.959-2.423-4.777-2.423s-3.515,0.86-4.777,2.423
		c-0.876,1.084-2.021,1.682-3.223,1.682s-2.347-0.598-3.223-1.682c-0.783-0.969-1.734-1.667-2.777-2.058V44.56
		c0.441,0.274,0.859,0.618,1.223,1.068c1.263,1.563,2.959,2.424,4.777,2.424s3.515-0.861,4.777-2.424
		c0.876-1.084,2.021-1.681,3.223-1.681s2.347,0.597,3.223,1.681c1.263,1.563,2.959,2.424,4.777,2.424s3.515-0.861,4.777-2.424
		c0.876-1.084,2.021-1.681,3.223-1.681s2.347,0.597,3.223,1.681c1.263,1.563,2.959,2.423,4.777,2.423s3.515-0.86,4.777-2.423
		c0.162-0.2,0.225-0.443,0.212-0.681H59v-14L58.989,30.951z"/>
</g>
<g>
	<path style="fill:#0096E6;" d="M58.629,30.222c-0.431-0.35-1.061-0.28-1.406,0.148c-0.876,1.084-2.021,1.681-3.223,1.681
		s-2.347-0.597-3.223-1.681c-1.263-1.563-2.959-2.423-4.777-2.423s-3.515,0.86-4.777,2.423c-0.876,1.084-2.021,1.682-3.223,1.682
		s-2.347-0.598-3.223-1.682c-1.263-1.563-2.959-2.423-4.777-2.423s-3.515,0.86-4.777,2.423c-0.876,1.084-2.021,1.682-3.223,1.682
		s-2.347-0.598-3.223-1.682c-0.783-0.969-1.734-1.667-2.777-2.058v2.248c0.441,0.274,0.859,0.618,1.223,1.068
		c1.263,1.563,2.959,2.424,4.777,2.424s3.515-0.861,4.777-2.424c0.876-1.084,2.021-1.681,3.223-1.681s2.347,0.597,3.223,1.681
		c1.263,1.563,2.959,2.424,4.777,2.424s3.515-0.861,4.777-2.424c0.876-1.084,2.021-1.681,3.223-1.681s2.347,0.597,3.223,1.681
		c1.263,1.563,2.959,2.423,4.777,2.423s3.515-0.86,4.777-2.423C59.125,31.199,59.058,30.569,58.629,30.222z"/>
	<path style="fill:#0096E6;" d="M58.629,37.222c-0.431-0.35-1.061-0.28-1.406,0.148c-0.876,1.084-2.021,1.681-3.223,1.681
		s-2.347-0.597-3.223-1.681c-1.263-1.563-2.959-2.423-4.777-2.423s-3.515,0.86-4.777,2.423c-0.876,1.084-2.021,1.682-3.223,1.682
		s-2.347-0.598-3.223-1.682c-1.263-1.563-2.959-2.423-4.777-2.423s-3.515,0.86-4.777,2.423c-0.876,1.084-2.021,1.682-3.223,1.682
		s-2.347-0.598-3.223-1.682c-0.783-0.969-1.734-1.667-2.777-2.058v2.248c0.441,0.274,0.859,0.618,1.223,1.068
		c1.263,1.563,2.959,2.424,4.777,2.424s3.515-0.861,4.777-2.424c0.876-1.084,2.021-1.681,3.223-1.681s2.347,0.597,3.223,1.681
		c1.263,1.563,2.959,2.424,4.777,2.424s3.515-0.861,4.777-2.424c0.876-1.084,2.021-1.681,3.223-1.681s2.347,0.597,3.223,1.681
		c1.263,1.563,2.959,2.423,4.777,2.423s3.515-0.86,4.777-2.423C59.125,38.199,59.058,37.569,58.629,37.222z"/>
	<g>
		<path style="fill:#0096E6;" d="M58.629,44.222c-0.431-0.349-1.061-0.28-1.406,0.148c-0.876,1.084-2.021,1.681-3.223,1.681
			s-2.347-0.597-3.223-1.681c-1.263-1.563-2.959-2.423-4.777-2.423s-3.515,0.86-4.777,2.423c-0.876,1.084-2.021,1.682-3.223,1.682
			s-2.347-0.598-3.223-1.682c-1.263-1.563-2.959-2.423-4.777-2.423s-3.515,0.86-4.777,2.423c-0.876,1.084-2.021,1.682-3.223,1.682
			s-2.347-0.598-3.223-1.682c-0.783-0.969-1.734-1.667-2.777-2.058v2.248c0.441,0.274,0.859,0.618,1.223,1.068
			c1.263,1.563,2.959,2.424,4.777,2.424s3.515-0.861,4.777-2.424c0.876-1.084,2.021-1.681,3.223-1.681s2.347,0.597,3.223,1.681
			c1.263,1.563,2.959,2.424,4.777,2.424s3.515-0.861,4.777-2.424c0.876-1.084,2.021-1.681,3.223-1.681s2.347,0.597,3.223,1.681
			c1.263,1.563,2.959,2.423,4.777,2.423s3.515-0.86,4.777-2.423C59.125,45.199,59.058,44.569,58.629,44.222z"/>
	</g>
</g>
<rect y="21.948" style="fill:#546A79;" width="16" height="26.062"/>
<rect x="2" y="14.948" style="fill:#38454F;" width="10" height="7"/>
<path style="fill:#ECF0F1;" d="M39,14.948H2v-2.287c0-0.946,0.767-1.713,1.713-1.713H39c0.753,0,1.364,0.611,1.364,1.364v1.272
	C40.364,14.337,39.753,14.948,39,14.948z"/>
<g>
</g>
<g>
</g>
<g>
</g>
<g>
</g>
<g>
</g>
<g>
</g>
<g>
</g>
<g>
</g>
<g>
</g>
<g>
</g>
<g>
</g>
<g>
</g>
<g>
</g>
<g>
</g>
<g>
</g>
</svg>
